<svg width="114" height="18" viewBox="0 0 114 18" xmlns="http://www.w3.org/2000/svg">
    <path d="M12.585 17.185V7.833h2.812V6.376h-2.812V.263h-1.616v16.922h1.616zm-8.636-3.42c2.373-3.22 3.75-6.154 3.75-12.085H.538v1.397h5.564c-.02 1.153-.12 2.226-.34 3.218H0v1.417h5.405c-.579 1.842-1.516 3.502-2.772 5.121l1.316.931zm25.349 3.42V7.833h2.812V6.376h-2.812V.263h-1.616v16.922h1.616zm-8.636-3.42c2.373-3.22 3.75-6.154 3.75-12.085h-7.16v1.397h5.564c-.02 1.153-.12 2.226-.34 3.218h-5.763v1.417h5.405c-.578 1.842-1.516 3.502-2.772 5.121l1.316.931zm27.922.85v-1.377h-7.16V9.696c2.573-.324 4.288-2.065 4.288-4.393 0-2.53-2.094-4.433-5.106-4.433-2.992 0-5.086 1.903-5.086 4.433 0 2.308 1.715 4.069 4.268 4.393v3.542h-7.12v1.376h15.916zm-7.978-6.296c-2.074 0-3.47-1.275-3.47-3.016 0-1.76 1.396-2.995 3.47-2.995 2.094 0 3.49 1.234 3.49 2.995 0 1.741-1.396 3.016-3.49 3.016zm22.337.79v-3.38h2.593V3.501h-2.593V.263H60.39V9.11h2.553zm-12.345.546c3.59-1.052 7.18-3.522 7.18-7.671V.83H50v2.065h5.225c-.12 1.902-2.433 3.744-5.584 4.594l.957 2.166zm12.804 8.158v-2.004h-8.077v-1.053h7.519v-1.903h-7.52v-1.012h7.7V9.858H52.771v7.954h10.63zm17.172-.628V.263H78.02v16.922h2.553zM71.3 11.963c2.932 0 4.786-2.308 4.786-5.324S74.232 1.316 71.3 1.316c-2.952 0-4.866 2.307-4.866 5.323 0 3.016 1.914 5.324 4.866 5.324zm0-2.166c-1.277 0-2.373-1.073-2.373-3.158 0-2.105 1.076-3.157 2.373-3.157 1.296 0 2.313 1.052 2.313 3.157 0 2.085-1.017 3.158-2.313 3.158zm25.07 7.388V8.218h2.592V6.012H96.37V.263h-2.552v16.922h2.552zm-11.748-3.866c3.47-1.984 6.761-5.182 6.761-10.283V1.498h-7.778v2.145h5.266c0 3.28-2.533 5.81-5.625 7.591l1.376 2.085zm16.494-.445c1.516-.83 3.131-2.025 4.428-3.543l3.27 3.138 1.696-1.923-3.73-2.976c.758-1.336 1.237-2.874 1.237-4.554v-.77h-2.413V0h-2.473v2.247h-2.533v2.125h4.846c-.16 2.328-2.712 4.96-5.664 6.498l1.336 2.004zM114 17.185V.263h-2.553v16.922H114z" fill="#FFF" fill-rule="nonzero" opacity=".5"/>
</svg>
