<svg width="36" height="36" viewBox="0 0 36 36" xmlns="http://www.w3.org/2000/svg" xmlns:xlink="http://www.w3.org/1999/xlink">
    <defs>
        <path id="a" d="M0 0h36v33H0z"/>
    </defs>
    <g fill="none" fill-rule="evenodd">
        <g transform="translate(0 2)">
            <mask id="b" fill="#fff">
                <use xlink:href="#a"/>
            </mask>
            <path d="M30.17 18.745c-.045 0-.09-.002-.135-.006-.318-.033-.497-.231-.829-.676l-2.262-3.06-.619.625v2.301c0 .466-.37.817-.86.817-.516 0-.862-.328-.862-.817v-7.074c0-.488.362-.842.862-.842.514 0 .86.339.86.842v2.74l3.033-3.139c.135-.133.356-.312.684-.312.417.01.835.285.824.788 0 .235-.141.39-.424.7-.063.069-.134.146-.21.233l-2.073 2.075 2.452 3.187c.253.328.463.6.418.948-.068.622-.675.67-.86.67zm-7.133-.095h-3.21c-.563 0-.9-.354-.9-.946v-6.798c0-.55.33-.893.862-.893.53 0 .86.342.86.893v6.189h2.388c.258 0 .472.082.62.238a.764.764 0 0 1 .203.571c-.011.363-.303.746-.823.746zm-6.633-.497-.376-1.169H12.43l-.385 1.156c-.135.414-.398.606-.828.606-.475 0-.848-.347-.848-.79a.99.99 0 0 1 .079-.375l2.5-6.571c.178-.482.608-.996 1.28-.996.59 0 1.057.362 1.282.994l2.423 6.56c.076.206.097.374.097.44 0 .414-.345.738-.785.738-.433 0-.707-.194-.84-.593zm-7.49-.301c0 .55-.33.894-.862.894-.53 0-.86-.343-.86-.894v-6.207H5.38c-.568 0-.77-.418-.77-.776 0-.378.27-.779.77-.779h5.342c.501 0 .772.401.772.779 0 .358-.202.776-.772.776h-1.81v6.207zM0 14.115c0 5.011 3.332 9.414 8.354 11.918l-1.696 6.29a.51.51 0 0 0 .123.527.517.517 0 0 0 .685.04l7.298-4.889c1.05.15 2.131.228 3.236.228 9.941 0 18-6.319 18-14.114C36 6.32 27.941 0 18 0 8.06 0 0 6.32 0 14.115z" fill="#666" mask="url(#b)"/>
        </g>
        <path d="m14.211 13.58-1.297 3.89h2.63l-1.3-3.89c-.005-.016-.028-.016-.033 0" fill="#666"/>
    </g>
</svg>
